<svg xmlns="http://www.w3.org/2000/svg" viewBox="0 0 16 16"><defs><style>.cls-1,.icon-canvas-transparent{opacity:0;}.cls-2,.icon-canvas-transparent{fill:#f6f6f6;}.white{fill:#fff;}</style></defs><g id="canvas" class="cls-1"><path class="cls-2" d="M16,16H0V0H16Z"/><path class="icon-canvas-transparent" d="M16,16H0V0H16Z"/></g><g id="iconBg"><path class="white" d="M3.738,9.788H.537a.554.554,0,0,1,0-1.108H4.769A5.977,5.977,0,0,1,7.612,9.906l-.147.1a3.919,3.919,0,0,1-1,.462,4.089,4.089,0,0,0-1.7-.678ZM.537,7.319H4.769A5.822,5.822,0,0,0,7.613,6.1c-.047-.032-.105-.072-.148-.1a3.742,3.742,0,0,0-1.124-.5,3.5,3.5,0,0,1-1.572.712H.537A.554.554,0,0,0,.537,7.319Zm9.805-3.464a3.821,3.821,0,0,0-1.627.34c-.09.032-.176.074-.265.111.25.155.492.314.718.47.143.1.284.189.426.281.07-.018.14-.038.211-.051h0a3.137,3.137,0,0,1,.537-.026,2.962,2.962,0,0,1,2.34,1.064h0a3.1,3.1,0,0,1,0,3.911h0a2.962,2.962,0,0,1-2.34,1.064,3.137,3.137,0,0,1-.537-.026h0c-.067-.013-.133-.032-.2-.048-.094.065-.187.126-.284.2-.256.185-.529.381-.836.567a4.28,4.28,0,0,0,1.017.339,3.668,3.668,0,0,0,.839.1,4.215,4.215,0,0,0,4.127-4.72A4.219,4.219,0,0,0,10.342,3.855ZM6.2,5.008h0a4.048,4.048,0,0,1,1.5.627h0c.762.487,2.4,1.748,3.536,1.686H12.85a2.347,2.347,0,0,0-.493-.993c-.036-.043-.081-.075-.12-.115h-1C9.442,5.99,8.472,4.323,6.5,3.954A4.105,4.105,0,0,0,2.173,5.78H3.607A2.987,2.987,0,0,1,6.2,5.008Zm9.268,2.313a.554.554,0,0,0,0-1.108h-.914a4.215,4.215,0,0,1,.334,1.108Zm0,1.36h-.6a4.433,4.433,0,0,1-.334,1.108h.932A.554.554,0,0,0,15.465,8.681ZM12.236,9.789c.037-.038.08-.068.114-.109a2.373,2.373,0,0,0,.5-1H11.233C10.1,8.619,8.458,9.881,7.7,10.367h0a4.062,4.062,0,0,1-1.5.626h0a2.99,2.99,0,0,1-2.6-.779l-1.449,0a4.17,4.17,0,0,0,5.135,1.587c1.667-.587,2.328-1.843,3.946-2.016ZM2.645,8.249a3.325,3.325,0,0,1,0-.5H1.5a3.779,3.779,0,0,0,0,.5Z"/></g></svg>