<svg xmlns="http://www.w3.org/2000/svg" viewBox="0 0 16 16"><defs><style>.cls-1,.icon-canvas-transparent{opacity:0;}.cls-2,.icon-canvas-transparent{fill:#f6f6f6;}.tye-light-blue{fill:#0597ff;}.tye-dark-blue{fill:#0457d2;}</style></defs><g id="canvas" class="cls-1"><path class="cls-2" d="M16,16H0V0H16Z"/><path class="icon-canvas-transparent" d="M16,16H0V0H16Z"/></g><g id="iconBg"><path class="tye-light-blue" d="M4.769,8.68A5.977,5.977,0,0,1,7.612,9.906l-.147.1a3.919,3.919,0,0,1-1,.462,4.089,4.089,0,0,0-1.7-.678H.537a.554.554,0,0,1,0-1.108ZM6.341,5.5a3.5,3.5,0,0,1-1.572.712H.537a.554.554,0,0,0,0,1.108H4.769A5.822,5.822,0,0,0,7.613,6.1c-.047-.032-.105-.072-.148-.1A3.742,3.742,0,0,0,6.341,5.5Zm8.128,1.926a4.219,4.219,0,0,0-4.127-3.57,3.821,3.821,0,0,0-1.627.34c-.09.032-.176.074-.265.111.25.155.492.314.718.47.143.1.284.189.426.281.07-.018.14-.038.211-.051h0a3.137,3.137,0,0,1,.537-.026,2.962,2.962,0,0,1,2.34,1.064h0a3.1,3.1,0,0,1,0,3.911h0a2.962,2.962,0,0,1-2.34,1.064,3.137,3.137,0,0,1-.537-.026h0c-.067-.013-.133-.032-.2-.048-.094.065-.187.126-.284.2-.256.185-.529.381-.836.567a4.28,4.28,0,0,0,1.017.339,3.668,3.668,0,0,0,.839.1A4.215,4.215,0,0,0,14.469,7.425Z"/><path class="tye-dark-blue" d="M14.885,7.321a4.215,4.215,0,0,0-.334-1.108h.914a.554.554,0,0,1,0,1.108ZM7.7,10.367h0a4.062,4.062,0,0,1-1.5.626h0a2.99,2.99,0,0,1-2.6-.779l-1.449,0a4.17,4.17,0,0,0,5.135,1.587c1.667-.587,2.328-1.843,3.946-2.016h1c.037-.038.08-.068.114-.109a2.373,2.373,0,0,0,.5-1H11.233C10.1,8.619,8.458,9.881,7.7,10.367Zm4.54-4.154h-1C9.442,5.99,8.472,4.323,6.5,3.954A4.105,4.105,0,0,0,2.173,5.78H3.607A2.987,2.987,0,0,1,6.2,5.008h0a4.048,4.048,0,0,1,1.5.627h0c.762.487,2.4,1.748,3.536,1.686H12.85a2.347,2.347,0,0,0-.493-.993C12.321,6.285,12.276,6.253,12.237,6.213Zm3.228,2.468h-.6a4.433,4.433,0,0,1-.334,1.108h.932A.554.554,0,0,0,15.465,8.681ZM2.646,7.75H1.5a3.779,3.779,0,0,0,0,.5H2.645A3.325,3.325,0,0,1,2.646,7.75Z"/></g></svg>