<?xml version="1.0" encoding="utf-8"?>
<!-- Generator: Adobe Illustrator 19.1.0, SVG Export Plug-In . SVG Version: 6.00 Build 0)  -->
<svg version="1.1" id="Layer_1" xmlns="http://www.w3.org/2000/svg" xmlns:xlink="http://www.w3.org/1999/xlink" x="0px" y="0px"
	 viewBox="0 0 64 64" style="enable-background:new 0 0 64 64;" xml:space="preserve">
<style type="text/css">
	.st0{display:none;fill:#2B3544;}
	.st1{fill:#4F5D73;}
	.st2{opacity:0.2;}
	.st3{fill:#231F20;}
	.st4{fill:none;stroke:#E0995E;stroke-width:4;stroke-linecap:round;stroke-miterlimit:10;}
	.st5{opacity:0.2;fill:#231F20;}
	.st6{fill:#F5CF87;}
	.st7{fill:none;stroke:#F5CF87;stroke-width:4;stroke-miterlimit:10;}
</style>
<rect x="-391" y="-1345" class="st0" width="608" height="1984"/>
<circle class="st1" cx="32" cy="32" r="32"/>
<g class="st2">
	<g>
		<path class="st3" d="M32,60c-1.1,0-2-0.9-2-2V10c0-1.1,0.9-2,2-2s2,0.9,2,2v48C34,59.1,33.1,60,32,60z"/>
	</g>
	<g>
		<path class="st3" d="M56,36H8c-1.1,0-2-0.9-2-2s0.9-2,2-2h48c1.1,0,2,0.9,2,2S57.1,36,56,36z"/>
	</g>
	<g>
		<path class="st3" d="M49,53c-0.5,0-1-0.2-1.4-0.6L13.6,18.4c-0.8-0.8-0.8-2,0-2.8c0.8-0.8,2-0.8,2.8,0l33.9,33.9
			c0.8,0.8,0.8,2,0,2.8C50,52.8,49.5,53,49,53z"/>
	</g>
	<g>
		<path class="st3" d="M15,53c-0.5,0-1-0.2-1.4-0.6c-0.8-0.8-0.8-2,0-2.8l33.9-33.9c0.8-0.8,2-0.8,2.8,0c0.8,0.8,0.8,2,0,2.8
			L16.4,52.4C16.1,52.8,15.5,53,15,53z"/>
	</g>
</g>
<g>
	<line class="st4" x1="32" y1="8" x2="32" y2="56"/>
	<line class="st4" x1="56" y1="32" x2="8" y2="32"/>
	<line class="st4" x1="49" y1="49" x2="15" y2="15"/>
	<line class="st4" x1="15" y1="49" x2="49" y2="15"/>
</g>
<path class="st5" d="M32,18c8.8,0,16,7.2,16,16s-7.2,16-16,16s-16-7.2-16-16S23.2,18,32,18 M32,14c-11,0-20,9-20,20s9,20,20,20
	s20-9,20-20S43,14,32,14L32,14z"/>
<g>
	<path class="st6" d="M32,16c8.8,0,16,7.2,16,16s-7.2,16-16,16s-16-7.2-16-16S23.2,16,32,16 M32,12c-11,0-20,9-20,20s9,20,20,20
		s20-9,20-20S43,12,32,12L32,12z"/>
</g>
<circle class="st1" cx="32" cy="32" r="6"/>
<g class="st2">
	<path class="st3" d="M32,44c-5.5,0-10-4.5-10-10s4.5-10,10-10s10,4.5,10,10S37.5,44,32,44z M32,28c-3.3,0-6,2.7-6,6s2.7,6,6,6
		s6-2.7,6-6S35.3,28,32,28z"/>
</g>
<circle class="st7" cx="32" cy="32" r="8"/>
</svg>
